<?xml version="1.0" encoding="utf-8"?>
<!-- Generator: Adobe Illustrator 23.0.5, SVG Export Plug-In . SVG Version: 6.00 Build 0)  -->
<svg version="1.1" id="Layer_1" xmlns="http://www.w3.org/2000/svg" xmlns:xlink="http://www.w3.org/1999/xlink" x="0px" y="0px"
	 viewBox="0 0 24 24" style="enable-background:new 0 0 24 24;" xml:space="preserve">
<style type="text/css">
	.st0{fill:#C00227;}
</style>
<path class="st0" d="M14.8,12.2c-0.3,0-0.5,0.2-0.5,0.5s0.2,0.5,0.5,0.5s0.5-0.2,0.5-0.5C15.3,12.4,15.1,12.2,14.8,12.2z"/>
<path class="st0" d="M4.8,17.3l-4.7,5.9C0,23.4,0,23.6,0,23.7S0.3,24,0.5,24h23.1c0.2,0,0.3-0.1,0.4-0.3s0.1-0.4-0.1-0.5l-4.7-5.9
	c-0.1-0.1-0.2-0.2-0.4-0.2h-4.1l3.5-5.5c0.8-1.2,1.3-2.7,1.3-4.2C19.5,3.4,16.1,0,12,0S4.5,3.4,4.5,7.5c0,1.5,0.4,2.9,1.3,4.2
	l3.5,5.5H5.2C5,17.2,4.9,17.2,4.8,17.3z M3,21h2.8l-1.6,2H1.4L3,21z M9.9,18.1l1.3,2H7.8l1.6-2H9.9z M14.1,18.1h0.4l1.6,2h-3.3
	L14.1,18.1z M16.9,21l1.6,2H5.5l1.6-2H16.9z M19.7,23.1l-1.6-2H21l1.6,2H19.7z M20.2,20.1h-2.8l-1.6-2h2.8L20.2,20.1z M6.5,11.1
	c-0.7-1.1-1.1-2.3-1.1-3.6c0-3.6,2.9-6.6,6.6-6.6c3.6,0,6.6,2.9,6.6,6.6c0,1.3-0.4,2.6-1.1,3.6c0,0,0,0,0,0
	c-0.3,0.5-5.2,8.2-5.5,8.6C11.4,18.8,7.2,12.1,6.5,11.1C6.5,11.1,6.5,11.1,6.5,11.1z M8.2,18.1l-1.6,2H3.8l1.6-2H8.2z"/>
<path class="st0" d="M12,12.2c2.6,0,4.7-2.1,4.7-4.7c0-2.6-2.1-4.7-4.7-4.7S7.3,4.9,7.3,7.5C7.3,10.1,9.4,12.2,12,12.2z M12,3.8
	c2.1,0,3.8,1.7,3.8,3.8c0,2.1-1.7,3.8-3.8,3.8c-2.1,0-3.8-1.7-3.8-3.8C8.3,5.4,9.9,3.8,12,3.8z"/>
<path class="st0" d="M14,13.8c-0.2-0.1-0.5-0.1-0.6,0.2l-1.7,2.9c-0.1,0.2-0.1,0.5,0.2,0.6c0.2,0.1,0.5,0.1,0.6-0.2l1.7-2.9
	C14.3,14.2,14.2,13.9,14,13.8z"/>
</svg>
