<?xml version="1.0" encoding="utf-8"?>
<!-- Generator: Adobe Illustrator 23.0.5, SVG Export Plug-In . SVG Version: 6.00 Build 0)  -->
<svg version="1.1" id="Layer_1" xmlns="http://www.w3.org/2000/svg" xmlns:xlink="http://www.w3.org/1999/xlink" x="0px" y="0px"
	 viewBox="0 0 24 24" style="enable-background:new 0 0 24 24;" xml:space="preserve">
<style type="text/css">
	.st0{fill:#C00227;}
</style>
<path class="st0" d="M24,9.3c0,0,0-0.1,0-0.1c0-0.1-0.1-0.3-0.2-0.3l-3.4-2.3V4c0-0.3-0.3-0.6-0.6-0.6h-4l-3.4-2.3
	c-0.2-0.1-0.5-0.1-0.7,0L8.3,3.4H4.3C4,3.4,3.7,3.7,3.7,4v2.5L0.3,8.8C0.1,8.9,0,9.1,0,9.3c0,0,0,0,0,0l0,13.1
	c0,0.2,0.1,0.3,0.2,0.4S0.5,23,0.6,23c0,0,0,0,0,0l22.8,0c0.3,0,0.6-0.3,0.6-0.6L24,9.3z M20.3,8l2,1.3l-2,1.3V8z M12,2.3l1.6,1.1
	h-3.1L12,2.3z M4.9,4.6h14.1v6.9l-4.7,3.2l-1.9-1.5c0,0,0,0,0,0c-0.2-0.2-0.5-0.2-0.7,0l-1.9,1.5l-4.7-3.2C4.9,11.5,4.9,4.6,4.9,4.6
	z M3.7,8v2.7l-2-1.4L3.7,8z M1.2,10.5l7.4,5l-7.4,5.7L1.2,10.5z M2.4,21.8l9.6-7.3l9.5,7.3L2.4,21.8z M15.3,15.5l7.4-5.1l0,10.7
	L15.3,15.5z"/>
<path class="st0" d="M16.2,7H7.8C7.5,7,7.2,7.3,7.2,7.6c0,0.3,0.3,0.6,0.6,0.6h8.3c0.3,0,0.6-0.3,0.6-0.6C16.8,7.3,16.5,7,16.2,7z"
	/>
<path class="st0" d="M16.2,10.2H7.8c-0.3,0-0.6,0.3-0.6,0.6c0,0.3,0.3,0.6,0.6,0.6h8.3c0.3,0,0.6-0.3,0.6-0.6
	C16.8,10.4,16.5,10.2,16.2,10.2z"/>
</svg>
